<svg width="164" height="134" viewBox="0 0 164 134" fill="none" xmlns="http://www.w3.org/2000/svg">
<g clip-path="url(#clip0_2028_16804)">
<g clip-path="url(#clip1_2028_16804)">
<path d="M73.1234 89.0021C70.4856 85.1882 65.763 78.3827 68.1128 76.6357C68.7463 76.1561 68.6887 75.1398 69.2762 74.5917C69.9788 73.9294 70.9579 73.6668 71.9024 73.427C73.9757 72.8903 76.2449 72.3765 78.2146 73.1986C80.1497 74.0094 84.4346 70.4696 84.8723 72.5021C85.3676 74.8429 89.4913 75.1398 87.4179 76.6471C83.6629 79.3876 76.6135 87.8488 73.1234 88.9906V89.0021Z" fill="#69CD90"/>
<path d="M34.8122 110.603C35.3766 110.603 35.8719 110.192 35.9525 109.61C36.4939 105.624 37.1274 101.776 38.9128 98.4426C40.3181 95.8049 42.4375 93.7952 44.7527 92.779C44.7758 93.7382 44.9485 94.6631 45.2711 95.5309C46.0198 97.5977 47.5517 99.4132 50.0858 101.251C50.9382 101.868 51.8827 102.439 53.0346 102.462C53.9676 102.462 54.9236 102.085 55.6493 101.32C56.6053 100.315 57.1352 98.7738 57.0315 97.3008C56.8818 95.3025 55.8567 93.4184 54.1519 92.0025C52.2974 90.4724 49.8555 89.6503 47.5172 89.7759C47.8282 88.8395 48.2889 87.9032 48.8994 87.0011C50.5581 84.569 53 82.6963 55.3498 80.8807C55.8566 80.4925 55.9373 79.7731 55.5456 79.2821C55.154 78.7911 54.4283 78.6998 53.933 79.088C51.4335 81.0177 48.8533 83.0046 46.9873 85.7337C46.0083 87.1724 45.3402 88.7139 45.0061 90.244C41.7349 91.2603 38.7976 93.8067 36.8855 97.3693C34.9274 101.034 34.2478 105.099 33.6834 109.29C33.6027 109.918 34.0404 110.489 34.674 110.569C34.7316 110.569 34.7776 110.569 34.8237 110.569L34.8122 110.603ZM47.9664 92.0596C49.6251 92.0596 51.3298 92.6762 52.6545 93.7724C53.887 94.7887 54.6126 96.1132 54.7163 97.4835C54.7739 98.317 54.4744 99.2305 53.9561 99.7672C53.6796 100.052 53.3686 100.223 53.0576 100.189C52.5508 100.189 51.9749 99.8129 51.4335 99.4132C49.2911 97.8603 48.0125 96.3759 47.425 94.7544C47.1255 93.9323 47.0104 93.0416 47.0449 92.1167C47.1256 92.1167 47.2062 92.0939 47.2868 92.0824C47.5057 92.0596 47.736 92.0482 47.9549 92.0482L47.9664 92.0596Z" fill="white"/>
<path d="M73.8506 107.422C74.0118 107.422 74.1731 107.388 74.3344 107.319C74.9103 107.057 75.1637 106.372 74.8988 105.801C74.8527 105.709 74.9218 105.447 75.1176 105.23C75.4171 104.921 75.9124 104.705 76.4423 104.499C79.6675 103.22 83.0539 102.329 86.498 101.861C87.1315 101.77 87.5692 101.199 87.4771 100.571C87.3964 99.9425 86.809 99.5087 86.1755 99.6C82.5471 100.091 78.9764 101.028 75.5669 102.387C74.8297 102.683 74.0579 103.026 73.4359 103.665C72.5951 104.545 72.3301 105.789 72.7909 106.771C72.9867 107.194 73.4014 107.434 73.8391 107.434L73.8506 107.422Z" fill="white"/>
<path d="M33.0984 80.2436C33.3172 80.2436 33.5476 80.1751 33.7434 80.0495C35.6325 78.7706 37.9131 78.1654 40.3205 77.5145C43.3038 76.7152 46.3908 75.8817 48.7636 73.6893C49.2244 73.2554 49.2589 72.536 48.8212 72.0793C48.3835 71.6225 47.6579 71.5883 47.1971 72.0222C45.239 73.8263 42.5551 74.5457 39.71 75.3107C37.222 75.9844 34.6419 76.6696 32.4303 78.1654C31.9004 78.5194 31.7622 79.2274 32.1308 79.7526C32.3497 80.0723 32.7183 80.255 33.0868 80.255L33.0984 80.2436Z" fill="white"/>
<path d="M129.012 64.6931C129.346 64.6931 129.68 64.5447 129.91 64.2707C130.313 63.7796 130.233 63.0603 129.749 62.6606C129.288 62.2838 129.15 61.7357 129.116 61.3475C129.046 60.571 129.334 59.726 129.841 59.1551C130.74 58.1503 132.249 57.5565 134.31 57.3966C135.059 57.3395 135.808 57.3395 136.603 57.3281C137.778 57.3281 138.987 57.3167 140.196 57.1226C142.8 56.7229 144.85 55.4554 145.829 53.6513C146.278 52.8177 146.474 51.9499 146.658 51.1163C146.797 50.5112 146.923 49.9402 147.142 49.4378C147.695 48.1589 148.985 47.0856 150.678 46.469C152.325 45.8752 154.192 45.7381 155.988 45.6011C156.622 45.5555 157.094 45.0074 157.048 44.3793C157.002 43.7513 156.438 43.2717 155.816 43.3288C153.869 43.4773 151.842 43.6257 149.895 44.3222C147.603 45.1444 145.818 46.6859 145.023 48.5357C144.723 49.2323 144.562 49.9402 144.412 50.6253C144.251 51.3447 144.101 52.0184 143.802 52.5779C142.903 54.2336 140.738 54.7361 139.839 54.8731C138.791 55.033 137.72 55.0444 136.58 55.0444C135.785 55.0444 134.955 55.0444 134.126 55.1243C131.442 55.3298 129.415 56.1748 128.113 57.6364C127.18 58.6755 126.697 60.1371 126.812 61.5302C126.904 62.7177 127.434 63.7454 128.286 64.4305C128.505 64.6018 128.758 64.6817 129.012 64.6817V64.6931Z" fill="white"/>
<path d="M62.873 68.4594C64.3013 76.441 66.0982 83.0182 73.1245 89.0016C74.8408 83.2808 72.5371 80.7116 72.5716 74.751C92.1187 66.05 109.224 52.5532 122.217 35.665C110.203 38.6567 99.122 44.4802 88.1793 50.258C83.8944 52.5189 79.598 54.7912 75.3131 57.0521C70.3601 59.667 65.0039 63.3096 62.873 68.4594Z" fill="#163B24"/>
<path d="M33.0391 66.4603C60.4188 55.0188 104.638 34.0541 133.412 26.7119C123.356 43.3603 109.153 77.8561 103.095 80.254C102.035 80.0599 99.0751 78.8724 98.2919 78.1302C94.2949 74.3049 76.5563 78.5869 72.5594 74.7502C89.2268 61.9613 104.961 48.8755 121.617 36.0866C114.072 39.7178 107.103 42.4925 100.837 46.1921C88.2707 53.6257 75.6924 61.0707 63.1256 68.5042C59.3706 62.4523 39.0748 70.2741 33.0391 66.4603Z" fill="#69CD90"/>
<path d="M80.8749 33.2662C77.0853 35.5385 75.1041 40.3458 74.5396 44.5136C73.9522 48.9098 74.9889 53.5115 77.4308 57.234C78.6057 59.0267 80.1262 60.6482 82.0728 61.5731C84.077 62.5323 86.4268 62.6807 88.5923 62.1554C93.7066 60.9108 97.3925 55.9437 97.9684 50.7596C98.5444 45.5755 96.4019 40.3458 93.0615 36.3036C91.6102 34.5451 89.6866 33.1292 87.475 32.4897C84.9294 31.7589 82.7178 32.1586 80.8864 33.2548L80.8749 33.2662Z" fill="#C39734"/>
<path d="M83.0759 32.7886C79.2863 35.0609 77.3051 39.8682 76.7407 44.036C76.1533 48.4322 77.1899 53.0339 79.6319 56.7564C80.8068 58.5491 82.3272 60.1706 84.2739 61.0955C86.2781 62.0547 88.6279 62.2031 90.7934 61.6779C95.9076 60.4332 99.5936 55.4661 100.17 50.282C100.746 45.098 98.603 39.8682 95.2626 35.826C93.8113 34.0675 91.8877 32.6516 89.6761 32.0122C87.1305 31.2814 84.9189 31.681 83.0875 32.7772L83.0759 32.7886Z" fill="#F8D77D"/>
<path d="M87.4414 63.1168L99.7317 53.0684L94.341 64.076L87.4414 63.1168Z" fill="#69CD90"/>
<path d="M85.115 60.2705C85.3799 60.2705 85.6449 60.1791 85.8637 59.9964C86.3475 59.5854 86.4051 58.866 85.9904 58.3864C83.3296 55.2919 81.6479 52.1176 80.9914 48.9432C80.2426 45.3235 80.9568 41.6124 82.8919 39.0203C83.272 38.5179 83.1684 37.7985 82.65 37.4217C82.1432 37.0449 81.4176 37.1477 81.0374 37.6615C78.6877 40.8017 77.8353 45.0837 78.7222 49.3999C79.4479 52.9625 81.3024 56.4795 84.2281 59.8708C84.4585 60.1335 84.781 60.2705 85.1035 60.2705H85.115Z" fill="#927326"/>
<path d="M96.819 55.3733C97.2452 55.3733 97.6484 55.1449 97.8557 54.7453C99.0882 52.3131 99.7678 49.584 99.8484 46.8664C99.8599 46.2383 99.3646 45.7131 98.7311 45.6902C98.1091 45.6674 97.5677 46.1698 97.5447 46.7979C97.4756 49.1844 96.8766 51.5823 95.7939 53.7176C95.5059 54.2771 95.7363 54.9622 96.3122 55.2477C96.4734 55.3276 96.6577 55.3733 96.8305 55.3733H96.819Z" fill="#927326"/>
<path d="M78.9197 37.1288C78.9197 37.1288 78.9542 37.1288 78.9658 37.1288C79.127 37.1288 79.2537 36.9918 79.2422 36.832C79.2422 36.6721 79.0809 36.5465 78.9427 36.5579C78.793 36.5579 78.5972 36.5122 78.3898 36.4666C78.1595 36.4095 77.9061 36.3524 77.6757 36.3638C77.5144 36.3638 77.3877 36.5008 77.3992 36.6607C77.3992 36.8205 77.549 36.9461 77.6987 36.9347C77.8369 36.9233 78.0443 36.9804 78.2516 37.0261C78.4705 37.0832 78.6893 37.1403 78.9082 37.1403L78.9197 37.1288Z" fill="#927326"/>
<path d="M77.4433 40.3256C77.5585 40.3256 77.6736 40.2571 77.7197 40.1314C77.7658 39.983 77.6967 39.8231 77.5469 39.766L76.0956 39.2636C75.9458 39.2065 75.7846 39.2865 75.727 39.4349C75.6809 39.5834 75.75 39.7432 75.8998 39.8003L77.3511 40.3027C77.3511 40.3027 77.4087 40.3142 77.4433 40.3142V40.3256Z" fill="#927326"/>
<path d="M76.4433 43.5358C76.5585 43.5358 76.6622 43.4673 76.7083 43.3531C76.7659 43.2047 76.6968 43.0448 76.547 42.9877L75.1993 42.4624C75.0496 42.4053 74.8883 42.4739 74.8307 42.6223C74.7732 42.7707 74.8423 42.9306 74.992 42.9877L76.3397 43.513C76.3397 43.513 76.4088 43.5358 76.4433 43.5358Z" fill="#927326"/>
<path d="M75.4968 46.9597C75.658 46.9597 75.8423 46.9255 76.0957 46.8684L76.3837 46.7999C76.5334 46.7656 76.6371 46.6058 76.591 46.4573C76.5565 46.3089 76.3952 46.2175 76.2455 46.2518L75.9575 46.3203C75.4622 46.4459 75.4392 46.4345 74.7711 46.2061L74.6444 46.1604C74.4947 46.1148 74.3334 46.1833 74.2758 46.3317C74.2297 46.4802 74.2988 46.64 74.4486 46.6971L74.5753 46.7428C75.013 46.8912 75.2318 46.9712 75.4968 46.9712V46.9597Z" fill="#927326"/>
<path d="M76.5347 50.7537C76.6614 50.7537 76.7536 50.7537 76.8227 50.7537C76.9839 50.7537 77.1106 50.6167 77.0991 50.4568C77.0991 50.2969 76.9724 50.1828 76.7996 50.1828C76.2007 50.2056 75.3253 50.1599 74.8876 49.9544C74.7378 49.8859 74.5766 49.9544 74.5074 50.1028C74.4383 50.2513 74.5074 50.4111 74.6572 50.4796C75.1985 50.7194 76.0509 50.7537 76.5347 50.7537Z" fill="#927326"/>
<path d="M77.9291 54.4634C78.0788 54.4634 78.2055 54.3492 78.2171 54.2007C78.2171 54.0409 78.1019 53.9039 77.9521 53.9039C77.2495 53.8582 76.8924 53.6983 76.305 53.4243L76.04 53.3101C75.9018 53.2416 75.729 53.3101 75.6599 53.4471C75.5908 53.5956 75.6599 53.7554 75.7982 53.8239L76.0516 53.9381C76.6851 54.235 77.1113 54.4291 77.9061 54.4748C77.9061 54.4748 77.9176 54.4748 77.9291 54.4748V54.4634Z" fill="#927326"/>
<path d="M79.5186 57.3393C79.6569 57.3393 79.7836 57.2366 79.8066 57.0881C79.8296 56.9282 79.7144 56.7912 79.5532 56.7684C79.2767 56.7341 78.8621 56.6885 78.4589 56.6542C78.0558 56.6085 77.6526 56.5743 77.3762 56.54C77.2149 56.5172 77.0767 56.6314 77.0537 56.7912C77.0306 56.9511 77.1458 57.0881 77.3071 57.111C77.5835 57.1452 77.9982 57.1909 78.4013 57.2251C78.8045 57.2708 79.2076 57.3051 79.4841 57.3393C79.4956 57.3393 79.5071 57.3393 79.5186 57.3393Z" fill="#927326"/>
<path d="M79.5408 59.8974C79.5408 59.8974 79.6099 59.8974 79.6445 59.8746L79.7942 59.8175C80.255 59.6348 80.9346 59.3493 81.3032 59.5206C81.4414 59.5891 81.6142 59.5206 81.6833 59.3836C81.7524 59.2351 81.6833 59.0753 81.5451 59.0067C80.9576 58.7327 80.1628 59.0524 79.5754 59.2922L79.4257 59.3493C79.2759 59.4064 79.2068 59.5777 79.2644 59.7261C79.3105 59.8403 79.4141 59.9088 79.5293 59.9088L79.5408 59.8974Z" fill="#927326"/>
<path d="M82.2592 62.0326C82.6163 62.0326 82.9733 61.9298 83.3074 61.8499C83.6299 61.77 83.9294 61.69 84.2289 61.69C84.3901 61.69 84.5168 61.553 84.5053 61.3932C84.5053 61.2333 84.4016 61.1191 84.2058 61.1191C83.8487 61.1191 83.4917 61.2219 83.1576 61.3018C82.8351 61.3817 82.5356 61.4617 82.2361 61.4617C82.0749 61.4617 81.9482 61.5987 81.9597 61.7586C81.9597 61.9184 82.0979 62.0326 82.2477 62.0326H82.2592Z" fill="#927326"/>
<path d="M62.7445 68.9266C62.8712 68.9266 62.9864 68.8923 63.0901 68.8124C64.3111 67.8989 65.8545 67.3051 67.352 66.7456C68.3195 66.3802 69.241 66.0262 70.0819 65.5923C71.5217 64.7816 72.8233 63.9366 74.0788 63.1259C75.772 62.0297 77.3731 61.002 79.0779 60.1685C79.3659 60.0314 79.481 59.6889 79.3428 59.4034C79.2046 59.1179 78.859 59.0037 78.5711 59.1408C76.8087 60.0086 75.1846 61.0477 73.4568 62.1667C72.2128 62.966 70.9227 63.7996 69.529 64.5875C68.7572 64.9871 67.8703 65.3183 66.9373 65.6722C65.3708 66.266 63.7466 66.8826 62.3874 67.8989C62.134 68.093 62.088 68.447 62.2723 68.6982C62.3874 68.8466 62.5602 68.9266 62.733 68.9266H62.7445Z" fill="#000100"/>
<path d="M97.1632 79.3069C97.5663 79.3069 97.9579 79.1013 98.1653 78.7245C98.4763 78.1764 98.2805 77.4799 97.7276 77.1716C95.4815 75.9155 92.9013 75.5844 90.6206 75.2875C88.5588 75.0249 86.543 74.7622 84.5273 74.5567C80.6916 74.157 76.8098 73.9287 73.0548 73.7117C72.3867 73.6775 71.8683 74.157 71.8338 74.7851C71.7992 75.4131 72.283 75.9498 72.9165 75.9955C76.6486 76.2124 80.5073 76.4408 84.2854 76.829C86.2781 77.0345 88.2708 77.2858 90.2635 77.5484C92.4866 77.8339 94.7327 78.1193 96.5872 79.1584C96.7715 79.2612 96.9558 79.3069 97.1516 79.3069H97.1632Z" fill="white"/>
<path d="M39.1798 69.2803C39.318 69.2803 39.4562 69.2576 39.5944 69.2005C41.7945 68.3555 44.2825 68.1385 46.6207 68.5724C47.2428 68.698 47.8417 68.2869 47.9684 67.6589C48.0836 67.0423 47.6805 66.4372 47.0469 66.323C44.271 65.7977 41.4028 66.0604 38.7651 67.0652C38.1661 67.2936 37.8781 67.9559 38.1085 68.5382C38.2813 68.995 38.719 69.269 39.1798 69.269V69.2803Z" fill="white"/>
</g>
</g>
<defs>
<clipPath id="clip0_2028_16804">
<rect width="163" height="134" fill="white" transform="translate(0.560547)"/>
</clipPath>
<clipPath id="clip1_2028_16804">
<rect width="163" height="134" fill="white" transform="translate(0.560547)"/>
</clipPath>
</defs>
</svg>
