<svg width="116" height="131" viewBox="0 0 116 131" fill="none" xmlns="http://www.w3.org/2000/svg">
<path fill-rule="evenodd" clip-rule="evenodd" d="M26.9786 78.4791C26.7486 75.2191 27.6686 67.0391 29.9786 64.3691C31.4486 62.6691 35.6486 60.8191 37.2086 63.3691C38.7686 65.9191 38.0486 69.1591 37.9486 71.8791C37.7886 76.5491 37.9486 84.6691 37.8286 89.3591" fill="#DA9036"/>
<path fill-rule="evenodd" clip-rule="evenodd" d="M50.3278 89.1917L46.0778 94.7317L38.1777 90.1217L47.6477 79.7617L51.8477 76.5117C52.6644 76.9241 53.4077 77.468 54.0477 78.1217C55.5877 79.3517 58.0477 80.9017 56.3977 83.0017C56.0377 83.4417 55.6478 83.8517 55.2578 84.2617C53.6278 85.9617 51.9078 87.4917 50.3278 89.1917Z" fill="#CD8328"/>
<path fill-rule="evenodd" clip-rule="evenodd" d="M34.6084 81.6594C37.3284 78.9694 42.4784 73.9194 45.3384 71.3794C46.5015 70.1947 47.8532 69.2114 49.3384 68.4694C51.4984 67.5594 53.0684 69.4694 54.1584 71.1594C54.5584 71.7794 55.2384 72.4894 55.1584 73.2794C54.9755 73.9168 54.6622 74.5093 54.2384 75.0194C53.3461 76.2534 52.3881 77.4385 51.3684 78.5694C48.0884 82.5694 42.8784 89.6894 39.5484 93.5694" fill="#DA9036"/>
<path fill-rule="evenodd" clip-rule="evenodd" d="M41.1279 89.9595C37.2579 86.2695 34.1279 81.9595 30.4579 78.0895C28.0379 75.5195 23.4579 69.7495 20.0779 68.5495C15.5379 66.9495 12.8179 72.9895 14.0779 76.5495C15.3779 80.2595 18.4579 83.2795 20.8079 86.3295C24.7279 91.4095 28.3679 97.1995 32.8579 101.81C35.2279 104.25 43.7779 105.339 49.3479 106.739C55.4579 108.279 69.4879 111.019 69.4879 111.019C70.6549 112.495 71.7399 114.034 72.7379 115.629C74.5679 119.019 76.5679 122.369 78.2479 125.84L80.3779 130.289C80.3779 130.289 115.008 130.639 115.068 130.459C115.488 129.219 113.258 126.609 112.678 125.749C109.678 121.239 106.278 116.919 103.158 112.469C98.6379 106.039 95.1579 97.2695 89.3279 92.0095C83.4979 86.7495 75.9979 87.5095 68.9279 88.2095C63.7079 88.7295 58.4479 88.8695 53.2279 89.3495C49.5779 89.5995 44.7779 89.8095 41.1279 89.9595Z" fill="#E3A151"/>
<path fill-rule="evenodd" clip-rule="evenodd" d="M70.9383 92.0088C66.2883 93.3088 62.9383 94.1088 62.9383 94.1088C62.9383 94.1088 58.1383 90.1088 57.3783 89.3888C53.9683 86.1988 53.0483 84.8488 48.1683 88.1188C47.6156 88.4895 47.1456 88.9707 46.788 89.532C46.4305 90.0932 46.193 90.7225 46.0906 91.3801C45.9882 92.0377 46.0231 92.7094 46.1931 93.3528C46.3631 93.9963 46.6645 94.5976 47.0783 95.1188C49.5387 98.4232 52.3893 101.418 55.5683 104.039C57.2983 105.439 60.4683 107.409 60.4683 107.409C60.4683 107.409 66.3083 108.069 69.1183 107.409C72.4883 106.609 77.9583 103.929 80.6983 102.599" fill="url(#paint0_linear_2962_42902)"/>
<path fill-rule="evenodd" clip-rule="evenodd" d="M27.4278 31.0996C26.3178 34.7596 26.9278 38.4396 29.9278 40.6096C32.6778 42.6096 40.0678 42.7396 49.1678 36.4796C60.2478 28.8496 57.6078 21.4796 54.5578 18.5396C51.9678 16.0796 46.5578 17.3096 44.9178 17.6696C38.0578 19.1796 30.5478 24.7096 27.4278 31.0996Z" fill="#FFBA16"/>
<path fill-rule="evenodd" clip-rule="evenodd" d="M52.5383 16.8095C55.8083 18.4795 56.5382 22.0895 55.2982 25.2895C53.6482 29.5995 49.4682 33.2895 45.4382 35.2895C42.2991 36.9505 38.9281 38.1303 35.4382 38.7895C33.7323 39.2283 31.9398 39.2007 30.2482 38.7095C28.3682 37.9995 27.5982 36.4095 27.1782 34.5795C27.0454 33.9976 26.9617 33.4055 26.9282 32.8095V32.2395C26.9282 32.1295 26.9982 31.8595 26.9282 31.9195C26.0882 32.5895 25.9282 33.9195 25.7082 34.9195C25.2982 37.1295 25.3682 39.5495 27.0182 41.2795C29.4782 43.8595 33.0182 45.7695 36.6582 45.3995C38.9939 45.04 41.2752 44.3882 43.4483 43.4595C47.8781 41.9128 51.8943 39.371 55.1882 36.0295C56.8888 34.2736 58.2455 32.2148 59.1882 29.9595C60.5882 26.3795 61.1882 22.1495 58.4582 19.0695C57.6982 18.1995 53.8383 16.5895 52.5383 16.8095Z" fill="black"/>
<path fill-rule="evenodd" clip-rule="evenodd" d="M71.1879 28.8713C75.9479 28.1613 83.9379 31.8713 87.5779 38.7713C90.4079 44.1413 90.7179 54.2613 86.8379 57.7713C77.3979 66.4013 62.2979 57.1713 60.1479 49.6513C58.2079 42.8413 59.0579 36.3613 64.2779 31.6513C66.2449 30.0435 68.6554 29.0737 71.1879 28.8713Z" fill="#FFBA16"/>
<path fill-rule="evenodd" clip-rule="evenodd" d="M57.9984 52.8717C55.5284 47.1417 53.9984 38.7817 64.2384 31.5117C58.9484 36.7517 58.6984 43.1317 60.5584 49.3017C63.4284 58.8517 77.3984 64.8017 87.5584 57.0417C85.7916 58.9432 83.7487 60.568 81.4984 61.8617C71.6384 66.6017 61.6384 61.3017 57.9984 52.8717Z" fill="black"/>
<path fill-rule="evenodd" clip-rule="evenodd" d="M70.9378 83.3414C71.4678 79.4914 73.9978 77.3414 77.0578 75.6314C80.1178 73.9214 83.9078 72.7214 86.6778 70.9114C88.1308 69.9191 89.2994 68.5643 90.0678 66.9814C90.8578 65.5114 91.4578 63.9014 92.2778 62.3614C92.3141 62.2952 92.325 62.218 92.3084 62.1444C92.2918 62.0708 92.2489 62.0057 92.1878 61.9614C92.1525 61.9424 92.1137 61.9308 92.0738 61.9271C92.0338 61.9234 91.9936 61.9277 91.9554 61.9398C91.9171 61.9519 91.8817 61.9716 91.8512 61.9976C91.8207 62.0237 91.7958 62.0555 91.7778 62.0914C90.9578 63.6314 90.3578 65.2414 89.5678 66.7114C88.8471 68.2056 87.7472 69.4848 86.3778 70.4214C83.6278 72.2214 79.9378 73.4214 76.7978 75.1114C73.6578 76.8014 70.9378 79.2014 70.3778 83.2714C70.3691 83.3506 70.3913 83.4302 70.4397 83.4935C70.4881 83.5568 70.5591 83.599 70.6378 83.6114C70.7125 83.6118 70.7845 83.5843 70.84 83.5344C70.8955 83.4845 70.9304 83.4157 70.9378 83.3414Z" fill="#ADDD1C"/>
<path fill-rule="evenodd" clip-rule="evenodd" d="M48.5182 56.9602C49.7716 52.8051 49.3962 48.3286 47.4682 44.4402C46.7282 43.0402 45.5483 41.9802 44.7583 40.6302C44.7406 40.5953 44.7159 40.5645 44.6856 40.5398C44.6554 40.5151 44.6203 40.4969 44.5826 40.4866C44.545 40.4762 44.5055 40.4739 44.4669 40.4797C44.4282 40.4854 44.3912 40.4993 44.3583 40.5202C44.3231 40.5389 44.2921 40.5646 44.2673 40.5957C44.2425 40.6269 44.2243 40.6628 44.214 40.7013C44.2037 40.7397 44.2014 40.7799 44.2073 40.8193C44.2132 40.8587 44.2271 40.8965 44.2482 40.9302C45.0182 42.2802 46.2482 43.3302 46.9382 44.7202C48.7948 48.4663 49.1524 52.7795 47.9382 56.7802C47.9144 56.8571 47.922 56.9404 47.9595 57.0116C47.9971 57.0829 48.0613 57.1363 48.1383 57.1602C48.2152 57.1841 48.2984 57.1764 48.3697 57.1389C48.4409 57.1014 48.4944 57.0371 48.5182 56.9602Z" fill="#1ADBD8"/>
<path fill-rule="evenodd" clip-rule="evenodd" d="M80.9084 129.96C78.2984 125.16 76.0584 120.14 73.1984 115.48C72.6984 114.68 72.0984 113.34 71.3784 112.25C70.9652 111.527 70.3684 110.927 69.6484 110.51C66.2684 108.9 61.8784 109 58.2184 108.42C52.7403 107.466 47.3161 106.224 41.9684 104.7C40.2684 104.25 37.9684 104.04 35.9684 103.42C34.7338 103.121 33.612 102.472 32.7384 101.55C29.1784 97.3098 26.2984 92.3798 22.8984 87.9898C20.1984 84.5098 16.4984 80.9898 15.0384 76.7698C14.4182 74.941 14.4182 72.9586 15.0384 71.1298C15.3036 70.2622 15.8558 69.5105 16.6044 68.9981C17.3531 68.4857 18.2537 68.243 19.1584 68.3098C19.7721 68.3182 20.3764 68.4615 20.9284 68.7298C22.7984 69.7298 24.0184 71.6298 25.3584 73.1898C27.7184 75.9298 30.1884 78.5998 32.4084 81.4698C32.4596 81.5253 32.5299 81.5594 32.6051 81.5654C32.6804 81.5714 32.7551 81.5488 32.8145 81.5021C32.8738 81.4554 32.9133 81.388 32.9252 81.3135C32.937 81.2389 32.9203 81.1626 32.8784 81.0998C30.6584 78.2298 28.1784 75.5498 25.8084 72.7998C24.4184 71.1898 23.1384 69.1898 21.1984 68.1998C20.5758 67.8916 19.893 67.7243 19.1984 67.7098C18.1684 67.6398 17.1448 67.9184 16.2923 68.5006C15.4398 69.0829 14.808 69.9349 14.4984 70.9198C13.8378 72.8652 13.8378 74.9743 14.4984 76.9198C15.9784 81.2498 19.6984 84.7898 22.4384 88.3198C25.8484 92.7098 28.7384 97.6498 32.2984 101.9C33.249 102.904 34.4669 103.615 35.8084 103.95C37.8084 104.57 40.1584 104.79 41.8584 105.24C47.2278 106.764 52.6716 108.012 58.1684 108.98C61.7884 109.54 66.1084 109.42 69.4484 110.98C70.0673 111.351 70.5776 111.879 70.9284 112.51C71.6484 113.59 72.2484 114.92 72.7384 115.72C75.5984 120.37 77.8284 125.38 80.4284 130.17C80.4472 130.205 80.4729 130.236 80.5037 130.261C80.5346 130.286 80.5701 130.304 80.6083 130.316C80.6464 130.327 80.6864 130.33 80.7259 130.326C80.7654 130.321 80.8037 130.309 80.8384 130.29C80.883 130.249 80.9138 130.195 80.9263 130.136C80.9389 130.077 80.9326 130.015 80.9084 129.96Z" fill="black"/>
<path fill-rule="evenodd" clip-rule="evenodd" d="M41.9976 89.5195C38.5976 84.5895 38.3077 78.2695 38.1077 72.5195C38.0577 71.1795 38.2276 69.6295 38.2576 68.1095C38.3679 66.5963 38.107 65.0791 37.4976 63.6895C37.2559 63.2102 36.8957 62.8005 36.4512 62.4995C36.0066 62.1984 35.4925 62.016 34.9576 61.9695C33.4211 61.8756 31.8869 62.1859 30.5076 62.8695C30.4361 62.9043 30.3807 62.9651 30.3527 63.0396C30.3248 63.114 30.3266 63.1963 30.3577 63.2695C30.3922 63.3411 30.4537 63.396 30.5287 63.4223C30.6037 63.4485 30.686 63.4439 30.7576 63.4095C31.8314 62.892 32.9973 62.5928 34.1876 62.5295C34.7392 62.4651 35.2975 62.5668 35.791 62.8216C36.2844 63.0763 36.6907 63.4726 36.9576 63.9595C37.5259 65.2616 37.7662 66.6831 37.6576 68.0995C37.6576 69.6295 37.4576 71.1895 37.5076 72.5395C37.7176 78.4495 38.0476 84.8895 41.5076 89.9095C41.5278 89.9466 41.5554 89.979 41.5889 90.0046C41.6224 90.0303 41.6609 90.0486 41.7019 90.0583C41.7429 90.0681 41.7855 90.0691 41.827 90.0613C41.8684 90.0535 41.9077 90.037 41.9424 90.013C41.977 89.9889 42.0062 89.9578 42.028 89.9218C42.0498 89.8857 42.0638 89.8454 42.069 89.8036C42.0742 89.7618 42.0706 89.7193 42.0583 89.679C42.046 89.6386 42.0253 89.6013 41.9976 89.5695V89.5195Z" fill="black"/>
<path fill-rule="evenodd" clip-rule="evenodd" d="M43.5481 89.7498C45.2681 85.3998 49.5481 81.9798 52.3581 78.3498C52.8781 77.6798 53.8081 76.7898 54.4881 75.8498C54.9691 75.2769 55.29 74.5869 55.4181 73.8498C55.409 73.0987 55.1757 72.3674 54.7481 71.7498C53.9318 70.3031 52.8808 69.0021 51.6381 67.8998C51.6077 67.8718 51.5718 67.8503 51.5327 67.8368C51.4936 67.8233 51.4521 67.818 51.4109 67.8213C51.3697 67.8245 51.3295 67.8363 51.2931 67.8558C51.2566 67.8754 51.2246 67.9022 51.199 67.9347C51.1734 67.9673 51.1548 68.0047 51.1444 68.0447C51.1339 68.0848 51.1319 68.1265 51.1384 68.1674C51.1449 68.2083 51.1598 68.2473 51.1821 68.2822C51.2044 68.317 51.2337 68.3469 51.2681 68.3698C52.4678 69.4192 53.482 70.6633 54.2681 72.0498C54.6366 72.5566 54.8424 73.1634 54.8581 73.7898C54.7408 74.4234 54.4618 75.0158 54.0481 75.5098C53.3681 76.4398 52.4481 77.3298 51.9181 77.9898C49.0381 81.6698 44.7681 85.1398 43.0381 89.5398C43.0082 89.6128 43.0081 89.6947 43.0381 89.7677C43.068 89.8406 43.1255 89.8989 43.1981 89.9298C43.2684 89.9493 43.3435 89.9416 43.4083 89.9083C43.4732 89.8749 43.5231 89.8183 43.5481 89.7498Z" fill="black"/>
<path fill-rule="evenodd" clip-rule="evenodd" d="M49.9377 86.8181C49.1175 87.2766 48.3638 87.8452 47.6977 88.5081C45.4077 90.9381 45.9377 93.698 47.8077 96.218C50.111 99.1397 52.7491 101.781 55.6677 104.088C56.9977 105.208 58.6678 106.928 60.3278 107.528C61.9878 108.128 64.4578 107.888 66.3278 107.818C72.0278 107.628 76.9578 106.468 81.1378 102.408C81.1726 102.383 81.2018 102.351 81.2231 102.314C81.2445 102.276 81.2577 102.235 81.2617 102.192C81.2657 102.15 81.2605 102.106 81.2465 102.066C81.2324 102.025 81.2098 101.988 81.1801 101.957C81.1505 101.926 81.1146 101.902 81.0747 101.886C81.0349 101.87 80.9921 101.863 80.9492 101.865C80.9063 101.866 80.8643 101.878 80.8261 101.897C80.7879 101.917 80.7544 101.944 80.7277 101.978C76.6577 105.928 71.8577 106.978 66.3077 107.228C64.4877 107.288 62.2577 107.578 60.5077 106.958C58.7577 106.338 57.3177 104.708 56.0377 103.628C53.1541 101.349 50.5464 98.7417 48.2677 95.858C46.5877 93.588 46.0477 91.1081 48.1177 88.9181C48.7449 88.2939 49.4549 87.7589 50.2277 87.328C50.2869 87.2832 50.3273 87.218 50.3411 87.1451C50.355 87.0721 50.3413 86.9967 50.3028 86.9332C50.2642 86.8698 50.2035 86.8229 50.1324 86.8016C50.0613 86.7804 49.9848 86.7862 49.9177 86.8181H49.9377Z" fill="black"/>
<path fill-rule="evenodd" clip-rule="evenodd" d="M71.3384 89.491C68.3694 90.4437 65.5411 91.789 62.9284 93.491C62.8644 93.5355 62.8203 93.6032 62.8054 93.6798C62.7904 93.7563 62.8059 93.8356 62.8484 93.901C62.8933 93.9673 62.9621 94.0137 63.0403 94.0305C63.1186 94.0473 63.2004 94.0331 63.2684 93.991C65.828 92.2898 68.6067 90.9442 71.5284 89.991C71.6025 89.9637 71.6635 89.9093 71.6988 89.8386C71.7341 89.768 71.7411 89.6866 71.7184 89.611C71.6808 89.5479 71.6213 89.5009 71.5512 89.4788C71.4812 89.4567 71.4055 89.461 71.3384 89.491Z" fill="black"/>
<path fill-rule="evenodd" clip-rule="evenodd" d="M71.1882 5.11156C71.1826 5.19814 71.1826 5.28499 71.1882 5.37156C71.2982 6.15156 71.4382 6.93156 71.5482 7.71156C71.5482 7.80156 71.5482 7.89156 71.5482 7.97156C71.5482 7.97156 71.5482 8.05156 71.5482 7.97156C71.5482 7.97156 71.5482 7.91156 71.5482 7.88156C71.5482 7.62156 71.4782 7.36156 71.4382 7.10156C71.3482 6.49156 71.2382 5.89156 71.1582 5.28156C71.1636 5.22168 71.1636 5.16144 71.1582 5.10156L71.1882 5.11156Z" fill="black"/>
<path fill-rule="evenodd" clip-rule="evenodd" d="M71.8879 8.71922C71.94 8.84715 71.9736 8.98182 71.9879 9.11922C71.9879 9.44922 71.9879 9.82922 72.0579 10.1192C72.0579 9.84922 72.0579 9.45922 71.9879 9.11922C71.9656 8.97584 71.9288 8.83511 71.8779 8.69922H71.8179H71.4579H70.0879H71.4879H71.8479L71.8879 8.71922Z" fill="black"/>
<path fill-rule="evenodd" clip-rule="evenodd" d="M73.7678 8.61984C73.7748 8.6696 73.7748 8.72009 73.7678 8.76984C73.7678 8.87984 73.7678 8.98984 73.7678 9.05984C73.7678 9.31984 73.8378 9.58984 73.8778 9.84984V10.1898C73.8778 10.0298 73.8778 9.87984 73.8278 9.72984C73.7778 9.57984 73.8278 9.27984 73.7478 9.04984C73.6678 8.81984 73.7478 8.82984 73.7478 8.71984C73.7438 8.67265 73.7265 8.62757 73.6978 8.58984H73.4478H72.5578C72.5578 8.58984 72.5578 8.58984 72.5078 8.58984H73.4578H73.7078L73.7678 8.61984Z" fill="black"/>
<path fill-rule="evenodd" clip-rule="evenodd" d="M74.2581 4.79094H74.398C74.6146 4.8069 74.826 4.86547 75.0199 4.96328C75.2138 5.0611 75.3865 5.19624 75.528 5.36094C75.6144 5.4986 75.6659 5.65523 75.6781 5.81728C75.6903 5.97932 75.6628 6.1419 75.5981 6.29094C75.569 6.37266 75.5356 6.45277 75.498 6.53094C75.4573 6.61107 75.4105 6.68796 75.3581 6.76094C75.4174 6.68713 75.4677 6.60658 75.5081 6.52094C75.5548 6.44241 75.5917 6.35845 75.618 6.27094C75.7033 6.07744 75.7251 5.86189 75.6801 5.65527C75.6352 5.44864 75.5259 5.26157 75.368 5.12094C75.0787 4.89509 74.7327 4.75324 74.368 4.71094H74.248L74.2581 4.79094Z" fill="black"/>
<path fill-rule="evenodd" clip-rule="evenodd" d="M72.998 0.561249C72.998 0.381249 72.938 0.21125 72.918 0.03125L72.978 0.44125C72.9733 0.487799 72.9733 0.5347 72.978 0.581249C72.978 0.581249 73.008 0.561249 72.998 0.561249Z" fill="black"/>
<path fill-rule="evenodd" clip-rule="evenodd" d="M70.7685 1.12812C70.7685 1.12812 70.7685 1.12813 70.7685 1.06813C70.7685 0.898127 70.7185 0.718126 70.6885 0.548126V0.328125C70.6885 0.328125 70.6885 0.458126 70.6885 0.528126C70.6885 0.598126 70.6885 0.728125 70.6885 0.828125C70.6885 0.928125 70.6885 1.02812 70.7385 1.12812C70.7385 1.12812 70.7685 1.13812 70.7685 1.12812Z" fill="black"/>
<path fill-rule="evenodd" clip-rule="evenodd" d="M23.3679 47.8883C26.1779 49.4683 28.8279 51.3483 31.6979 52.8283C31.7325 52.8471 31.7706 52.8586 31.8097 52.8622C31.8489 52.8658 31.8884 52.8613 31.9259 52.8492C31.9633 52.837 31.9978 52.8174 32.0274 52.7914C32.057 52.7655 32.081 52.7338 32.0979 52.6983C32.1338 52.6291 32.1414 52.5486 32.119 52.474C32.0966 52.3993 32.046 52.3363 31.9779 52.2983C29.1179 50.8183 26.4679 48.9483 23.6679 47.3683C23.599 47.3285 23.517 47.3177 23.4402 47.3384C23.3633 47.359 23.2977 47.4093 23.2579 47.4783C23.2182 47.5472 23.2074 47.6292 23.228 47.7061C23.2487 47.783 23.299 47.8485 23.3679 47.8883Z" fill="#FE772A"/>
<path fill-rule="evenodd" clip-rule="evenodd" d="M27.9283 46.0412C27.6083 48.9812 27.1683 51.9512 26.6983 54.8812C26.6894 54.9589 26.7102 55.0372 26.7565 55.1003C26.8029 55.1633 26.8714 55.2065 26.9483 55.2212C27.0277 55.2329 27.1085 55.2134 27.1737 55.1667C27.239 55.1201 27.2836 55.05 27.2983 54.9712C27.7683 52.0312 28.1983 49.0612 28.5283 46.1012C28.5341 46.0221 28.5093 45.9438 28.4591 45.8824C28.4088 45.821 28.337 45.7812 28.2583 45.7712C28.2189 45.767 28.179 45.7707 28.141 45.7821C28.1031 45.7935 28.0677 45.8122 28.037 45.8373C28.0063 45.8624 27.9809 45.8934 27.9622 45.9284C27.9436 45.9634 27.9321 46.0017 27.9283 46.0412Z" fill="#FE772A"/>
<path fill-rule="evenodd" clip-rule="evenodd" d="M26.0082 47.0414C26.8882 49.1814 27.6682 51.3514 28.5682 53.4814C28.5834 53.5186 28.606 53.5523 28.6345 53.5806C28.663 53.6089 28.697 53.6311 28.7343 53.6461C28.7716 53.661 28.8115 53.6683 28.8517 53.6675C28.8919 53.6667 28.9315 53.6578 28.9682 53.6414C29.0041 53.6262 29.0366 53.604 29.0638 53.576C29.0909 53.5479 29.1121 53.5147 29.1261 53.4783C29.1401 53.4419 29.1466 53.403 29.1452 53.364C29.1439 53.3251 29.1347 53.2867 29.1181 53.2514C28.2281 51.1214 27.4381 48.9514 26.5581 46.8114C26.5272 46.7388 26.469 46.6813 26.396 46.6514C26.323 46.6214 26.2412 46.6214 26.1682 46.6514C26.1313 46.6656 26.0978 46.6871 26.0696 46.7147C26.0414 46.7423 26.0191 46.7754 26.0041 46.8119C25.9892 46.8484 25.9818 46.8876 25.9825 46.9271C25.9832 46.9665 25.9919 47.0054 26.0082 47.0414Z" fill="#FE772A"/>
<path fill-rule="evenodd" clip-rule="evenodd" d="M25.4485 52.0796C26.9985 50.7896 28.9185 50.0196 30.5685 48.8596C30.6309 48.8136 30.6731 48.7452 30.6861 48.6687C30.6992 48.5923 30.6821 48.5138 30.6385 48.4496C30.6164 48.4166 30.588 48.3882 30.5548 48.3663C30.5216 48.3443 30.4844 48.3291 30.4453 48.3217C30.4062 48.3143 30.366 48.3147 30.3271 48.3229C30.2882 48.3311 30.2513 48.347 30.2185 48.3696C28.5585 49.5396 26.6285 50.3696 25.0585 51.6196C25.0058 51.6769 24.9766 51.7518 24.9766 51.8296C24.9766 51.9075 25.0058 51.9824 25.0585 52.0396C25.1079 52.092 25.1745 52.1248 25.2461 52.1322C25.3177 52.1395 25.3896 52.1209 25.4485 52.0796Z" fill="#FE772A"/>
<defs>
<linearGradient id="paint0_linear_2962_42902" x1="58.7222" y1="101.155" x2="70.7378" y2="89.9636" gradientUnits="userSpaceOnUse">
<stop stop-color="#D98F35"/>
<stop offset="1" stop-color="#E3A151"/>
</linearGradient>
</defs>
</svg>
