<svg width="25" height="24" viewBox="0 0 25 24" fill="none" xmlns="http://www.w3.org/2000/svg">
<g clip-path="url(#clip0_2489_12803)">
<path d="M12.5 17.25C15.3995 17.25 17.75 14.8995 17.75 12C17.75 9.10051 15.3995 6.75 12.5 6.75C9.60051 6.75 7.25 9.10051 7.25 12C7.25 14.8995 9.60051 17.25 12.5 17.25Z" fill="url(#paint0_linear_2489_12803)" stroke="#F8AF18" stroke-width="0.375" stroke-miterlimit="10"/>
<path d="M18.2585 6.24125L20.455 4.04479M4.54505 19.9547L6.7415 17.7582M20.6494 11.9997H23.743M1.257 11.9997L4.35943 11.9997M12.5088 3.85034V0.756748M12.5088 23.2516V20.1492M6.7415 6.24125L4.54505 4.04479M20.455 19.9547L18.2585 17.7582" stroke="#FBBF24" stroke-width="1.5" stroke-miterlimit="10" stroke-linecap="round"/>
</g>
<defs>
<linearGradient id="paint0_linear_2489_12803" x1="9.875" y1="7.45" x2="15.125" y2="16.55" gradientUnits="userSpaceOnUse">
<stop stop-color="#FBBF24"/>
<stop offset="0.5" stop-color="#FBBF24"/>
<stop offset="1" stop-color="#F59E0B"/>
</linearGradient>
<clipPath id="clip0_2489_12803">
<rect width="24" height="24" fill="white" transform="translate(0.5)"/>
</clipPath>
</defs>
</svg>
