<svg width="30" height="30" viewBox="0 0 30 30" fill="none" xmlns="http://www.w3.org/2000/svg">
<path d="M10.4057 14.3336C10.4957 14.4203 10.5675 14.524 10.617 14.6387C10.6665 14.7535 10.6926 14.8769 10.6939 15.0018C10.6951 15.1268 10.6715 15.2507 10.6244 15.3664C10.5772 15.4821 10.5075 15.5873 10.4193 15.6758C10.331 15.7643 10.2261 15.8343 10.1105 15.8818C9.99491 15.9292 9.87104 15.9532 9.7461 15.9523C9.62115 15.9514 9.49764 15.9256 9.38277 15.8765C9.26789 15.8273 9.16396 15.7558 9.07702 15.6661C8.98953 15.5787 8.9201 15.4749 8.87271 15.3607C8.82531 15.2465 8.80087 15.1241 8.80078 15.0005C8.80061 14.7508 8.89963 14.5112 9.07608 14.3345C9.25253 14.1578 9.49194 14.0585 9.74165 14.0583C9.99136 14.0581 10.2309 14.1571 10.4076 14.3336H10.4057ZM13.0688 11.6724C13.1587 11.7592 13.2304 11.863 13.2797 11.9779C13.329 12.0927 13.355 12.2161 13.356 12.3411C13.3571 12.466 13.3333 12.5899 13.286 12.7056C13.2387 12.8212 13.1688 12.9263 13.0805 13.0147C12.9921 13.103 12.887 13.1729 12.7714 13.2202C12.6557 13.2675 12.5318 13.2913 12.4069 13.2902C12.2819 13.2892 12.1585 13.2632 12.0437 13.2139C11.9288 13.1646 11.825 13.0929 11.7382 13.003C11.5668 12.8255 11.4719 12.5878 11.4741 12.3411C11.4762 12.0944 11.5752 11.8583 11.7497 11.6839C11.9241 11.5094 12.1602 11.4104 12.4069 11.4083C12.6536 11.4061 12.8913 11.501 13.0688 11.6724ZM15.7319 9.01122C15.8192 9.09871 15.8885 9.20256 15.9357 9.31682C15.983 9.43109 16.0072 9.55354 16.0072 9.67718C16.0071 9.80083 15.9826 9.92324 15.9352 10.0374C15.8878 10.1516 15.8184 10.2554 15.7309 10.3428C15.6434 10.4301 15.5396 10.4994 15.4253 10.5466C15.311 10.5939 15.1886 10.6181 15.065 10.6181C14.9413 10.618 14.8189 10.5935 14.7047 10.5461C14.5905 10.4987 14.4868 10.4293 14.3994 10.3418C14.228 10.1643 14.1331 9.92664 14.1353 9.67991C14.1374 9.43317 14.2364 9.19716 14.4108 9.02269C14.5853 8.84821 14.8213 8.74925 15.0681 8.74711C15.3148 8.74496 15.5525 8.83981 15.73 9.01122H15.7319ZM15.7319 19.6578C15.8192 19.7453 15.8885 19.8492 15.9357 19.9634C15.983 20.0777 16.0072 20.2001 16.0072 20.3238C16.0071 20.4474 15.9826 20.5699 15.9352 20.684C15.8878 20.7982 15.8184 20.902 15.7309 20.9894C15.6434 21.0767 15.5396 21.146 15.4253 21.1932C15.311 21.2405 15.1886 21.2647 15.065 21.2647C14.9413 21.2646 14.8189 21.2401 14.7047 21.1927C14.5905 21.1453 14.4868 21.0759 14.3994 20.9884C14.228 20.8109 14.1331 20.5732 14.1353 20.3265C14.1374 20.0798 14.2364 19.8438 14.4108 19.6693C14.5853 19.4948 14.8213 19.3959 15.0681 19.3937C15.3148 19.3916 15.5525 19.4864 15.73 19.6578H15.7319ZM18.3912 16.9948C18.5679 17.1712 18.6672 17.4106 18.6674 17.6603C18.6676 17.91 18.5685 18.1496 18.3921 18.3263C18.2156 18.503 17.9762 18.6024 17.7265 18.6025C17.4768 18.6027 17.2373 18.5037 17.0606 18.3272C16.8891 18.1498 16.7943 17.9121 16.7964 17.6653C16.7986 17.4186 16.8976 17.1826 17.072 17.0081C17.2465 16.8336 17.4825 16.7347 17.7292 16.7325C17.976 16.7304 18.2137 16.8252 18.3912 16.9966V16.9948ZM21.0523 14.3336C21.1423 14.4203 21.2142 14.524 21.2636 14.6387C21.3131 14.7535 21.3392 14.8769 21.3405 15.0018C21.3417 15.1268 21.3181 15.2507 21.271 15.3664C21.2238 15.4821 21.1541 15.5873 21.0659 15.6758C20.9776 15.7643 20.8727 15.8343 20.7571 15.8818C20.6415 15.9292 20.5176 15.9532 20.3927 15.9523C20.2678 15.9514 20.1442 15.9256 20.0294 15.8765C19.9145 15.8273 19.8106 15.7558 19.7236 15.6661C19.6361 15.5787 19.5667 15.4749 19.5193 15.3607C19.4719 15.2465 19.4475 15.1241 19.4474 15.0005C19.4472 14.7508 19.5462 14.5112 19.7227 14.3345C19.8991 14.1578 20.1385 14.0585 20.3883 14.0583C20.638 14.0581 20.8775 14.1571 21.0542 14.3336H21.0523ZM13.0688 16.9948C13.1563 17.0821 13.2257 17.1859 13.2731 17.3001C13.3205 17.4143 13.3449 17.5367 13.345 17.6603C13.3451 17.784 13.3209 17.9064 13.2736 18.0207C13.2264 18.135 13.1571 18.2388 13.0697 18.3263C12.9824 18.4138 12.8786 18.4832 12.7644 18.5306C12.6502 18.578 12.5278 18.6025 12.4042 18.6025C12.2805 18.6026 12.1581 18.5784 12.0438 18.5311C11.9295 18.4839 11.8257 18.4146 11.7382 18.3272C11.5668 18.1498 11.4719 17.9121 11.4741 17.6653C11.4762 17.4186 11.5752 17.1826 11.7497 17.0081C11.9241 16.8336 12.1602 16.7347 12.4069 16.7325C12.6536 16.7304 12.8913 16.8252 13.0688 16.9966V16.9948ZM15.7319 14.3336C15.8193 14.4211 15.8887 14.5249 15.9361 14.6393C15.9834 14.7536 16.0078 14.8761 16.0078 14.9998C16.0078 15.1236 15.9834 15.2461 15.9361 15.3604C15.8887 15.4747 15.8193 15.5786 15.7319 15.6661C15.6444 15.7535 15.5405 15.823 15.4262 15.8703C15.3119 15.9177 15.1894 15.942 15.0656 15.942C14.9419 15.942 14.8194 15.9177 14.7051 15.8703C14.5907 15.823 14.4869 15.7535 14.3994 15.6661C14.3119 15.5787 14.2425 15.4749 14.1951 15.3607C14.1477 15.2465 14.1232 15.1241 14.1231 15.0005C14.123 14.7508 14.222 14.5112 14.3984 14.3345C14.5749 14.1578 14.8143 14.0585 15.064 14.0583C15.3137 14.0581 15.5533 14.1571 15.73 14.3336H15.7319ZM18.3912 11.6724C18.481 11.7592 18.5527 11.863 18.602 11.9779C18.6514 12.0927 18.6773 12.2161 18.6784 12.3411C18.6795 12.466 18.6557 12.5899 18.6084 12.7056C18.561 12.8212 18.4912 12.9263 18.4028 13.0147C18.3145 13.103 18.2094 13.1729 18.0938 13.2202C17.9781 13.2675 17.8542 13.2913 17.7292 13.2902C17.6043 13.2892 17.4808 13.2632 17.366 13.2139C17.2512 13.1646 17.1474 13.0929 17.0606 13.003C16.8891 12.8255 16.7943 12.5878 16.7964 12.3411C16.7986 12.0944 16.8976 11.8583 17.072 11.6839C17.2465 11.5094 17.4825 11.4104 17.7292 11.4083C17.976 11.4061 18.2137 11.501 18.3912 11.6724Z" fill="#293056"/>
<path d="M26.5194 3.47963C25.4606 2.42115 24.0247 1.82653 22.5276 1.82653C21.0304 1.82653 19.5946 2.42115 18.5358 3.47963L16.379 5.63831L24.3983 13.6557L26.5194 11.4632C27.5778 10.4044 28.1724 8.96853 28.1724 7.4714C28.1724 5.97426 27.5778 4.53842 26.5194 3.47963ZM23.079 14.9995L15.0503 6.97078L6.97831 15.0578L14.9995 23.079L23.079 14.9995ZM13.6576 24.3983L5.64584 16.3865L3.47963 18.5377C2.47632 19.6071 1.92844 21.0249 1.9519 22.4911C1.97537 23.9573 2.56834 25.3568 3.60535 26.3936C4.64236 27.4304 6.04204 28.023 7.50824 28.0461C8.97443 28.0692 10.3921 27.521 11.4613 26.5175L11.4726 26.5062L13.6557 24.3964L13.6576 24.3983ZM4.98525 14.3897L17.2033 2.14904C18.6195 0.76242 20.5254 -0.00975427 22.5074 9.30409e-05C24.4894 0.00994036 26.3875 0.801014 27.7899 2.20163C29.1922 3.60226 29.9857 5.49941 29.998 7.48137C30.0103 9.46334 29.2405 11.3702 27.8556 12.7881L25.0758 15.6657L15.6544 25.0871L12.7881 27.8575C11.3702 29.2423 9.46334 30.0122 7.48138 29.9999C5.49941 29.9876 3.60226 29.1941 2.20163 27.7918C0.801014 26.3894 0.00994036 24.4913 9.30409e-05 22.5093C-0.00975427 20.5273 0.76242 18.6214 2.14904 17.2052L2.15092 17.2015L4.98336 14.3935L4.98525 14.3897Z" fill="#293056"/>
<path d="M3.47963 3.47869C2.42115 4.53749 1.82653 5.97333 1.82653 7.47046C1.82653 8.9676 2.42115 10.4034 3.47963 11.4622L5.63831 13.619L13.6557 5.59973L11.4632 3.47869C10.4044 2.42022 8.96853 1.8256 7.4714 1.8256C5.97426 1.8256 4.53842 2.42022 3.47963 3.47869ZM14.9995 6.91903L6.97078 14.9477L15.0578 23.0197L23.079 14.9986L14.9995 6.91903ZM24.3983 16.3404L16.3865 24.3522L18.5377 26.5184C19.6071 27.5217 21.0249 28.0696 22.4911 28.0461C23.9573 28.0227 25.3568 27.4297 26.3936 26.3927C27.4304 25.3557 28.023 23.956 28.0461 22.4898C28.0692 21.0236 27.521 19.6059 26.5175 18.5368L26.5062 18.5255L24.3964 16.3423L24.3983 16.3404ZM14.3897 25.0128L2.14904 12.7947C0.762419 11.3785 -0.00975517 9.4726 9.20571e-05 7.49062C0.00993928 5.50864 0.801013 3.61051 2.20163 2.20815C3.60225 0.805799 5.49941 0.0123785 7.48137 7.78743e-05C9.46334 -0.0122227 11.3702 0.757591 12.7881 2.14246L15.6657 4.9222L25.0871 14.3436L27.8575 17.2099C29.2423 18.6279 30.0122 20.5347 29.9999 22.5167C29.9876 24.4986 29.1941 26.3958 27.7918 27.7964C26.3894 29.197 24.4913 29.9881 22.5093 29.998C20.5273 30.0078 18.6214 29.2356 17.2052 27.849L17.2015 27.8471L14.3935 25.0147L14.3897 25.0128Z" fill="#293056"/>
<path d="M14.3307 19.5913C14.4173 19.5014 14.5211 19.4295 14.6358 19.38C14.7505 19.3306 14.874 19.3044 14.9989 19.3032C15.1239 19.3019 15.2478 19.3256 15.3635 19.3727C15.4792 19.4199 15.5844 19.4896 15.6729 19.5778C15.7613 19.666 15.8313 19.771 15.8788 19.8866C15.9263 20.0022 15.9503 20.126 15.9494 20.251C15.9485 20.3759 15.9227 20.4994 15.8736 20.6143C15.8244 20.7292 15.7529 20.8331 15.6631 20.92C15.5758 21.0075 15.472 21.077 15.3578 21.1244C15.2436 21.1718 15.1212 21.1962 14.9976 21.1963C14.7478 21.1965 14.5083 21.0974 14.3316 20.921C14.1549 20.7445 14.0555 20.5051 14.0554 20.2554C14.0552 20.0057 14.1542 19.7662 14.3307 19.5895L14.3307 19.5913ZM11.6695 16.9283C11.7563 16.8384 11.8601 16.7667 11.9749 16.7174C12.0897 16.6681 12.2132 16.6421 12.3382 16.641C12.4631 16.6399 12.587 16.6638 12.7027 16.7111C12.8183 16.7584 12.9234 16.8283 13.0117 16.9166C13.1001 17.005 13.17 17.11 13.2173 17.2257C13.2646 17.3413 13.2884 17.4652 13.2873 17.5902C13.2862 17.7151 13.2603 17.8386 13.2109 17.9534C13.1616 18.0682 13.0899 18.1721 13.0001 18.2589C12.8226 18.4303 12.5849 18.5251 12.3382 18.523C12.0914 18.5208 11.8554 18.4219 11.6809 18.2474C11.5065 18.0729 11.4075 17.8369 11.4054 17.5902C11.4032 17.3435 11.4981 17.1058 11.6695 16.9283ZM9.00829 14.2652C9.09578 14.1778 9.19963 14.1086 9.31389 14.0613C9.42816 14.0141 9.55061 13.9898 9.67425 13.9899C9.7979 13.99 9.92031 14.0144 10.0345 14.0618C10.1487 14.1092 10.2525 14.1787 10.3398 14.2662C10.4272 14.3536 10.4965 14.4575 10.5437 14.5718C10.5909 14.686 10.6152 14.8085 10.6151 14.9321C10.615 15.0558 10.5906 15.1782 10.5432 15.2924C10.4958 15.4066 10.4264 15.5103 10.3389 15.5977C10.1614 15.7691 9.92371 15.8639 9.67698 15.8618C9.43025 15.8597 9.19423 15.7607 9.01976 15.5862C8.84528 15.4118 8.74632 15.1757 8.74418 14.929C8.74203 14.6823 8.83688 14.4446 9.00829 14.2671L9.00829 14.2652ZM19.6549 14.2652C19.7424 14.1778 19.8462 14.1086 19.9605 14.0613C20.0748 14.0141 20.1972 13.9898 20.3209 13.9899C20.4445 13.99 20.5669 14.0144 20.6811 14.0618C20.7953 14.1092 20.8991 14.1787 20.9864 14.2662C21.0738 14.3536 21.1431 14.4575 21.1903 14.5718C21.2375 14.686 21.2618 14.8085 21.2617 14.9321C21.2616 15.0558 21.2372 15.1782 21.1898 15.2924C21.1424 15.4066 21.073 15.5103 20.9855 15.5977C20.808 15.7691 20.5703 15.8639 20.3236 15.8618C20.0769 15.8597 19.8408 15.7607 19.6664 15.5862C19.4919 15.4118 19.3929 15.1757 19.3908 14.929C19.3886 14.6823 19.4835 14.4446 19.6549 14.2671L19.6549 14.2652ZM16.9918 11.6059C17.1683 11.4292 17.4077 11.3299 17.6574 11.3297C17.9071 11.3295 18.1467 11.4285 18.3234 11.605C18.5001 11.7814 18.5994 12.0208 18.5996 12.2705C18.5998 12.5203 18.5008 12.7598 18.3243 12.9365C18.1468 13.1079 17.9091 13.2028 17.6624 13.2006C17.4157 13.1985 17.1797 13.0995 17.0052 12.925C16.8307 12.7506 16.7317 12.5146 16.7296 12.2678C16.7275 12.0211 16.8223 11.7834 16.9937 11.6059L16.9918 11.6059ZM14.3307 8.94474C14.4173 8.85474 14.5211 8.78292 14.6358 8.73345C14.7505 8.68397 14.874 8.65784 14.9989 8.65659C15.1239 8.65533 15.2478 8.67896 15.3635 8.72611C15.4792 8.77326 15.5844 8.84299 15.6729 8.93121C15.7613 9.01944 15.8313 9.1244 15.8788 9.23998C15.9263 9.35555 15.9503 9.47942 15.9494 9.60437C15.9485 9.72931 15.9227 9.85282 15.8736 9.9677C15.8244 10.0826 15.7529 10.1865 15.6631 10.2734C15.5758 10.3609 15.472 10.4304 15.3578 10.4778C15.2436 10.5252 15.1212 10.5496 14.9976 10.5497C14.7478 10.5499 14.5083 10.4508 14.3316 10.2744C14.1549 10.0979 14.0555 9.85853 14.0554 9.60881C14.0552 9.3591 14.1542 9.11955 14.3307 8.94285L14.3307 8.94474ZM16.9918 16.9283C17.0792 16.8408 17.1829 16.7714 17.2971 16.724C17.4113 16.6766 17.5338 16.6521 17.6574 16.652C17.7811 16.652 17.9035 16.6762 18.0178 16.7235C18.132 16.7707 18.2359 16.84 18.3234 16.9273C18.4109 17.0147 18.4803 17.1184 18.5277 17.2326C18.5751 17.3468 18.5995 17.4693 18.5996 17.5929C18.5997 17.7166 18.5754 17.839 18.5282 17.9533C18.481 18.0675 18.4117 18.1714 18.3243 18.2589C18.1468 18.4303 17.9091 18.5251 17.6624 18.523C17.4157 18.5208 17.1797 18.4219 17.0052 18.2474C16.8307 18.0729 16.7317 17.8369 16.7296 17.5902C16.7275 17.3435 16.8223 17.1058 16.9937 16.9283L16.9918 16.9283ZM14.3307 14.2652C14.4181 14.1777 14.522 14.1083 14.6363 14.061C14.7506 14.0136 14.8732 13.9893 14.9969 13.9893C15.1206 13.9893 15.2431 14.0136 15.3575 14.061C15.4718 14.1083 15.5756 14.1777 15.6631 14.2652C15.7506 14.3527 15.82 14.4566 15.8674 14.5709C15.9147 14.6852 15.9391 14.8077 15.9391 14.9315C15.9391 15.0552 15.9147 15.1777 15.8674 15.292C15.82 15.4063 15.7506 15.5102 15.6631 15.5977C15.5758 15.6852 15.472 15.7546 15.3578 15.802C15.2436 15.8494 15.1212 15.8738 14.9976 15.8739C14.7478 15.8741 14.5083 15.7751 14.3316 15.5986C14.1549 15.4222 14.0555 15.1828 14.0554 14.9331C14.0552 14.6833 14.1542 14.4438 14.3307 14.2671L14.3307 14.2652ZM11.6695 11.6059C11.7563 11.516 11.8601 11.4444 11.9749 11.395C12.0897 11.3457 12.2132 11.3198 12.3382 11.3187C12.4631 11.3176 12.587 11.3414 12.7027 11.3887C12.8183 11.436 12.9234 11.5059 13.0117 11.5943C13.1001 11.6826 13.17 11.7877 13.2173 11.9033C13.2646 12.019 13.2884 12.1429 13.2873 12.2678C13.2862 12.3928 13.2603 12.5163 13.2109 12.6311C13.1616 12.7459 13.0899 12.8497 13.0001 12.9365C12.8226 13.1079 12.5849 13.2028 12.3382 13.2006C12.0914 13.1985 11.8554 13.0995 11.6809 12.925C11.5065 12.7506 11.4075 12.5146 11.4054 12.2678C11.4032 12.0211 11.4981 11.7834 11.6695 11.6059Z" fill="#293056"/>
</svg>
