<svg width="25" height="24" viewBox="0 0 25 24" fill="none" xmlns="http://www.w3.org/2000/svg">
<path d="M22.9234 9.118C22.8297 8.82974 22.6527 8.57568 22.4148 8.38783C22.1769 8.19998 21.8887 8.08673 21.5866 8.06237L16.0553 7.61612L13.9197 2.45143C13.8042 2.17001 13.6076 1.92929 13.355 1.75987C13.1023 1.59046 12.805 1.5 12.5008 1.5C12.1966 1.5 11.8992 1.59046 11.6466 1.75987C11.3939 1.92929 11.1974 2.17001 11.0819 2.45143L8.94812 7.61518L3.41406 8.06237C3.11141 8.08797 2.82305 8.20231 2.5851 8.39106C2.34714 8.57982 2.17019 8.8346 2.0764 9.12348C1.9826 9.41237 1.97615 9.72251 2.05784 10.015C2.13953 10.3076 2.30573 10.5695 2.53562 10.768L6.75437 14.4083L5.46906 19.8514C5.39717 20.1471 5.41477 20.4576 5.51962 20.7432C5.62448 21.0289 5.81185 21.277 6.05796 21.456C6.30407 21.635 6.59781 21.7369 6.90191 21.7486C7.20601 21.7604 7.50674 21.6815 7.76593 21.5221L12.5003 18.6083L17.2375 21.5221C17.4968 21.6796 17.7969 21.757 18.1001 21.7444C18.4032 21.7317 18.6958 21.6297 18.9411 21.451C19.1864 21.2724 19.3733 21.0252 19.4784 20.7406C19.5835 20.4559 19.602 20.1466 19.5316 19.8514L18.2416 14.4074L22.4603 10.7671C22.6921 10.5689 22.8598 10.3064 22.9422 10.0128C23.0247 9.71927 23.0181 9.40784 22.9234 9.118ZM21.4853 9.63081L16.9197 13.5683C16.8156 13.6581 16.7381 13.7747 16.6958 13.9055C16.6535 14.0362 16.6479 14.1761 16.6797 14.3099L18.0747 20.1974C18.0783 20.2055 18.0787 20.2147 18.0757 20.223C18.0727 20.2314 18.0667 20.2383 18.0587 20.2424C18.0419 20.2555 18.0372 20.2527 18.0231 20.2424L12.8931 17.0877C12.775 17.015 12.639 16.9766 12.5003 16.9766C12.3616 16.9766 12.2256 17.015 12.1075 17.0877L6.97749 20.2442C6.96343 20.2527 6.95968 20.2555 6.94187 20.2442C6.93396 20.2402 6.92789 20.2333 6.92493 20.2249C6.92196 20.2166 6.92232 20.2074 6.92593 20.1992L8.32093 14.3117C8.35273 14.178 8.34715 14.0381 8.30483 13.9073C8.2625 13.7766 8.18505 13.6599 8.08093 13.5702L3.51531 9.63268C3.50406 9.62331 3.49374 9.61487 3.50312 9.58581C3.51249 9.55675 3.51999 9.5605 3.53406 9.55862L9.52656 9.07487C9.664 9.06308 9.79554 9.01361 9.90669 8.9319C10.0178 8.85019 10.1043 8.73941 10.1566 8.61175L12.4647 3.02331C12.4722 3.00737 12.475 2.99987 12.4975 2.99987C12.52 2.99987 12.5228 3.00737 12.5303 3.02331L14.8441 8.61175C14.8968 8.73946 14.9838 8.85012 15.0955 8.93152C15.2072 9.01291 15.3391 9.06187 15.4769 9.073L21.4694 9.55675C21.4834 9.55675 21.4919 9.55675 21.5003 9.58393C21.5087 9.61112 21.5003 9.62143 21.4853 9.63081Z" fill="#EE46BC"/>
</svg>
