<svg width="16" height="16" viewBox="0 0 16 16" fill="none" xmlns="http://www.w3.org/2000/svg">
<path d="M15.473 7.07557L12.3089 9.8058L13.2729 13.8888C13.3261 14.1105 13.3124 14.3429 13.2335 14.5568C13.1547 14.7707 13.0142 14.9564 12.8299 15.0905C12.6456 15.2245 12.4256 15.301 12.1979 15.3101C11.9701 15.3193 11.7447 15.2607 11.5502 15.1418L7.99947 12.9565L4.44658 15.1418C4.25211 15.26 4.02703 15.318 3.79966 15.3085C3.57229 15.2991 3.35281 15.2225 3.16886 15.0886C2.98491 14.9546 2.8447 14.7692 2.7659 14.5557C2.6871 14.3422 2.67323 14.1102 2.72603 13.8888L3.69353 9.8058L0.529468 7.07557C0.357412 6.92686 0.232978 6.73077 0.171706 6.51176C0.110434 6.29276 0.115039 6.06056 0.184947 5.84416C0.254855 5.62776 0.386968 5.43675 0.564785 5.29499C0.742603 5.15322 0.958245 5.06699 1.18478 5.04705L5.33322 4.71236L6.93353 0.839551C7.02015 0.628485 7.16758 0.447944 7.35707 0.320882C7.54656 0.19382 7.76956 0.125977 7.99771 0.125977C8.22586 0.125977 8.44886 0.19382 8.63835 0.320882C8.82784 0.447944 8.97527 0.628485 9.06189 0.839551L10.6615 4.71236L14.8099 5.04705C15.0369 5.06625 15.2532 5.152 15.4317 5.29357C15.6101 5.43514 15.7428 5.62622 15.8132 5.84289C15.8835 6.05955 15.8884 6.29215 15.8271 6.51155C15.7658 6.73096 15.6412 6.9274 15.4688 7.07627L15.473 7.07557Z" fill="#FFD529"/>
</svg>
