<svg width="84" height="84" viewBox="0 0 84 84" fill="none" xmlns="http://www.w3.org/2000/svg">
<circle cx="41.9997" cy="41.6667" r="41.6667" fill="#93ECC3" fill-opacity="0.2"/>
<path fill-rule="evenodd" clip-rule="evenodd" d="M42.0009 20.0215C30.0476 20.0215 20.3574 29.7116 20.3574 41.665C20.3574 53.6184 30.0476 63.3085 42.0009 63.3085C53.9543 63.3085 63.6445 53.6184 63.6445 41.665C63.6445 29.7116 53.9543 20.0215 42.0009 20.0215ZM52.2464 37.1535C53.0148 36.3851 53.0148 35.1393 52.2464 34.3709C51.478 33.6025 50.2322 33.6025 49.4638 34.3709L39.0495 44.7852L34.5381 40.2737C33.7697 39.5053 32.5239 39.5053 31.7555 40.2737C30.9871 41.0421 30.9871 42.2879 31.7555 43.0563L37.6583 48.9591C38.4266 49.7275 39.6725 49.7275 40.4408 48.9591L52.2464 37.1535Z" fill="#09CF9F"/>
</svg>
