<svg width="25" height="24" viewBox="0 0 25 24" fill="none" xmlns="http://www.w3.org/2000/svg">
<path d="M3.3 11.8509C3.37879 11.91 3.46845 11.953 3.56386 11.9774C3.65927 12.0019 3.75856 12.0073 3.85607 11.9933C3.95357 11.9794 4.04737 11.9464 4.13212 11.8962C4.21687 11.846 4.29091 11.7797 4.35 11.7009C4.80409 11.0954 5.39291 10.604 6.06983 10.2655C6.74675 9.92708 7.49318 9.75087 8.25 9.75087C9.00682 9.75087 9.75325 9.92708 10.4302 10.2655C11.1071 10.604 11.6959 11.0954 12.15 11.7009C12.2695 11.8599 12.4472 11.9649 12.6441 11.9928C12.841 12.0208 13.041 11.9694 13.2 11.8499C13.2567 11.8078 13.3069 11.7576 13.3491 11.7009C13.8032 11.0954 14.392 10.604 15.0689 10.2655C15.7458 9.92708 16.4922 9.75087 17.2491 9.75087C18.0059 9.75087 18.7523 9.92708 19.4292 10.2655C20.1061 10.604 20.695 11.0954 21.1491 11.7009C21.2685 11.86 21.4463 11.9652 21.6433 11.9932C21.8403 12.0212 22.0404 11.9699 22.1995 11.8504C22.3587 11.7309 22.4638 11.5531 22.4919 11.3561C22.5199 11.1591 22.4685 10.9591 22.3491 10.7999C21.6852 9.90993 20.7999 9.20921 19.7812 8.76743C20.3397 8.25757 20.731 7.59077 20.9037 6.85456C21.0764 6.11834 21.0225 5.34711 20.7491 4.64208C20.4756 3.93704 19.9954 3.33115 19.3715 2.90391C18.7476 2.47667 18.009 2.24805 17.2528 2.24805C16.4966 2.24805 15.7581 2.47667 15.1341 2.90391C14.5102 3.33115 14.03 3.93704 13.7566 4.64208C13.4831 5.34711 13.4292 6.11834 13.6019 6.85456C13.7747 7.59077 14.1659 8.25757 14.7244 8.76743C13.9889 9.08548 13.3207 9.54079 12.7556 10.109C12.1906 9.54079 11.5224 9.08548 10.7869 8.76743C11.3453 8.25757 11.7366 7.59077 11.9093 6.85456C12.082 6.11834 12.0281 5.34711 11.7547 4.64208C11.4813 3.93704 11.0011 3.33115 10.3771 2.90391C9.75317 2.47667 9.01464 2.24805 8.25844 2.24805C7.50224 2.24805 6.7637 2.47667 6.13976 2.90391C5.51581 3.33115 5.03561 3.93704 4.76218 4.64208C4.48874 5.34711 4.43484 6.11834 4.60756 6.85456C4.78028 7.59077 5.17154 8.25757 5.73 8.76743C4.70686 9.20777 3.81722 9.90895 3.15 10.8009C3.09091 10.8797 3.04791 10.9693 3.02346 11.0647C2.99902 11.1601 2.99361 11.2594 3.00754 11.3569C3.02147 11.4544 3.05446 11.5482 3.10464 11.633C3.15483 11.7177 3.22121 11.7918 3.3 11.8509ZM17.25 3.75087C17.695 3.75087 18.13 3.88283 18.5 4.13006C18.87 4.3773 19.1584 4.7287 19.3287 5.13983C19.499 5.55097 19.5436 6.00337 19.4568 6.43982C19.37 6.87628 19.1557 7.27719 18.841 7.59186C18.5263 7.90653 18.1254 8.12082 17.689 8.20764C17.2525 8.29446 16.8001 8.2499 16.389 8.0796C15.9778 7.9093 15.6264 7.62091 15.3792 7.2509C15.132 6.88089 15 6.44588 15 6.00087C15 5.40413 15.2371 4.83184 15.659 4.40988C16.081 3.98792 16.6533 3.75087 17.25 3.75087ZM8.25 3.75087C8.69501 3.75087 9.13002 3.88283 9.50003 4.13006C9.87004 4.3773 10.1584 4.7287 10.3287 5.13983C10.499 5.55097 10.5436 6.00337 10.4568 6.43982C10.37 6.87628 10.1557 7.27719 9.84099 7.59186C9.52632 7.90653 9.12541 8.12082 8.68895 8.20764C8.2525 8.29446 7.8001 8.2499 7.38896 8.0796C6.97783 7.9093 6.62643 7.62091 6.37919 7.2509C6.13196 6.88089 6 6.44588 6 6.00087C6 5.40413 6.23705 4.83184 6.65901 4.40988C7.08097 3.98792 7.65326 3.75087 8.25 3.75087ZM19.7812 18.5174C20.3397 18.0076 20.731 17.3408 20.9037 16.6046C21.0764 15.8683 21.0225 15.0971 20.7491 14.3921C20.4756 13.687 19.9954 13.0811 19.3715 12.6539C18.7476 12.2267 18.009 11.998 17.2528 11.998C16.4966 11.998 15.7581 12.2267 15.1341 12.6539C14.5102 13.0811 14.03 13.687 13.7566 14.3921C13.4831 15.0971 13.4292 15.8683 13.6019 16.6046C13.7747 17.3408 14.1659 18.0076 14.7244 18.5174C13.9889 18.8355 13.3207 19.2908 12.7556 19.859C12.1906 19.2908 11.5224 18.8355 10.7869 18.5174C11.3453 18.0076 11.7366 17.3408 11.9093 16.6046C12.082 15.8683 12.0281 15.0971 11.7547 14.3921C11.4813 13.687 11.0011 13.0811 10.3771 12.6539C9.75317 12.2267 9.01464 11.998 8.25844 11.998C7.50224 11.998 6.7637 12.2267 6.13976 12.6539C5.51581 13.0811 5.03561 13.687 4.76218 14.3921C4.48874 15.0971 4.43484 15.8683 4.60756 16.6046C4.78028 17.3408 5.17154 18.0076 5.73 18.5174C4.70686 18.9578 3.81722 19.6589 3.15 20.5509C3.09091 20.6297 3.04791 20.7193 3.02346 20.8147C2.99902 20.9101 2.99361 21.0094 3.00754 21.1069C3.02147 21.2044 3.05446 21.2982 3.10464 21.383C3.15483 21.4677 3.22121 21.5418 3.3 21.6009C3.37879 21.66 3.46845 21.703 3.56386 21.7274C3.65927 21.7519 3.75856 21.7573 3.85607 21.7433C3.95357 21.7294 4.04737 21.6964 4.13212 21.6462C4.21687 21.596 4.29091 21.5297 4.35 21.4509C4.80409 20.8454 5.39291 20.354 6.06983 20.0155C6.74675 19.6771 7.49318 19.5009 8.25 19.5009C9.00682 19.5009 9.75325 19.6771 10.4302 20.0155C11.1071 20.354 11.6959 20.8454 12.15 21.4509C12.2695 21.6099 12.4472 21.7149 12.6441 21.7428C12.841 21.7708 13.041 21.7194 13.2 21.5999C13.2567 21.5578 13.3069 21.5076 13.3491 21.4509C13.8032 20.8454 14.392 20.354 15.0689 20.0155C15.7458 19.6771 16.4922 19.5009 17.2491 19.5009C18.0059 19.5009 18.7523 19.6771 19.4292 20.0155C20.1061 20.354 20.695 20.8454 21.1491 21.4509C21.2685 21.61 21.4463 21.7152 21.6433 21.7432C21.8403 21.7712 22.0404 21.7199 22.1995 21.6004C22.3587 21.4809 22.4638 21.3031 22.4919 21.1061C22.5199 20.9091 22.4685 20.7091 22.3491 20.5499C21.6852 19.6599 20.7999 18.9592 19.7812 18.5174ZM8.25 13.5009C8.69501 13.5009 9.13002 13.6328 9.50003 13.8801C9.87004 14.1273 10.1584 14.4787 10.3287 14.8898C10.499 15.301 10.5436 15.7534 10.4568 16.1898C10.37 16.6263 10.1557 17.0272 9.84099 17.3419C9.52632 17.6565 9.12541 17.8708 8.68895 17.9576C8.2525 18.0445 7.8001 17.9999 7.38896 17.8296C6.97783 17.6593 6.62643 17.3709 6.37919 17.0009C6.13196 16.6309 6 16.1959 6 15.7509C6 15.1541 6.23705 14.5818 6.65901 14.1599C7.08097 13.7379 7.65326 13.5009 8.25 13.5009ZM17.25 13.5009C17.695 13.5009 18.13 13.6328 18.5 13.8801C18.87 14.1273 19.1584 14.4787 19.3287 14.8898C19.499 15.301 19.5436 15.7534 19.4568 16.1898C19.37 16.6263 19.1557 17.0272 18.841 17.3419C18.5263 17.6565 18.1254 17.8708 17.689 17.9576C17.2525 18.0445 16.8001 17.9999 16.389 17.8296C15.9778 17.6593 15.6264 17.3709 15.3792 17.0009C15.132 16.6309 15 16.1959 15 15.7509C15 15.1541 15.2371 14.5818 15.659 14.1599C16.081 13.7379 16.6533 13.5009 17.25 13.5009Z" fill="#12B76A"/>
</svg>
