<svg width="30" height="30" viewBox="0 0 30 30" fill="none" xmlns="http://www.w3.org/2000/svg">
<path d="M10.4067 14.3336C10.4967 14.4203 10.5685 14.524 10.618 14.6387C10.6675 14.7535 10.6936 14.8769 10.6949 15.0018C10.6961 15.1268 10.6725 15.2507 10.6253 15.3664C10.5782 15.4821 10.5085 15.5873 10.4202 15.6758C10.332 15.7643 10.227 15.8343 10.1115 15.8818C9.99589 15.9292 9.87202 15.9532 9.74707 15.9523C9.62213 15.9514 9.49862 15.9256 9.38374 15.8765C9.26887 15.8273 9.16493 15.7558 9.078 15.6661C8.99051 15.5787 8.92108 15.4749 8.87368 15.3607C8.82629 15.2465 8.80185 15.1241 8.80176 15.0005C8.80158 14.7508 8.90061 14.5112 9.07706 14.3345C9.2535 14.1578 9.49292 14.0585 9.74263 14.0583C9.99234 14.0581 10.2319 14.1571 10.4086 14.3336H10.4067ZM13.0698 11.6724C13.1596 11.7592 13.2313 11.863 13.2807 11.9779C13.33 12.0927 13.3559 12.2161 13.357 12.3411C13.3581 12.466 13.3343 12.5899 13.287 12.7056C13.2397 12.8212 13.1698 12.9263 13.0814 13.0147C12.9931 13.103 12.888 13.1729 12.7724 13.2202C12.6567 13.2675 12.5328 13.2913 12.4079 13.2902C12.2829 13.2892 12.1594 13.2632 12.0446 13.2139C11.9298 13.1646 11.826 13.0929 11.7392 13.003C11.5678 12.8255 11.4729 12.5878 11.4751 12.3411C11.4772 12.0944 11.5762 11.8583 11.7506 11.6839C11.9251 11.5094 12.1611 11.4104 12.4079 11.4083C12.6546 11.4061 12.8923 11.501 13.0698 11.6724ZM15.7328 9.01122C15.8202 9.09871 15.8895 9.20256 15.9367 9.31682C15.984 9.43109 16.0082 9.55354 16.0081 9.67718C16.008 9.80083 15.9836 9.92324 15.9362 10.0374C15.8888 10.1516 15.8194 10.2554 15.7319 10.3428C15.6444 10.4301 15.5406 10.4994 15.4263 10.5466C15.312 10.5939 15.1896 10.6181 15.0659 10.6181C14.9423 10.618 14.8199 10.5935 14.7057 10.5461C14.5915 10.4987 14.4877 10.4293 14.4004 10.3418C14.2289 10.1643 14.1341 9.92664 14.1362 9.67991C14.1384 9.43317 14.2374 9.19716 14.4118 9.02269C14.5863 8.84821 14.8223 8.74925 15.069 8.74711C15.3158 8.74496 15.5535 8.83981 15.7309 9.01122H15.7328ZM15.7328 19.6578C15.8202 19.7453 15.8895 19.8492 15.9367 19.9634C15.984 20.0777 16.0082 20.2001 16.0081 20.3238C16.008 20.4474 15.9836 20.5699 15.9362 20.684C15.8888 20.7982 15.8194 20.902 15.7319 20.9894C15.6444 21.0767 15.5406 21.146 15.4263 21.1932C15.312 21.2405 15.1896 21.2647 15.0659 21.2647C14.9423 21.2646 14.8199 21.2401 14.7057 21.1927C14.5915 21.1453 14.4877 21.0759 14.4004 20.9884C14.2289 20.8109 14.1341 20.5732 14.1362 20.3265C14.1384 20.0798 14.2374 19.8438 14.4118 19.6693C14.5863 19.4948 14.8223 19.3959 15.069 19.3937C15.3158 19.3916 15.5535 19.4864 15.7309 19.6578H15.7328ZM18.3921 16.9948C18.5688 17.1712 18.6682 17.4106 18.6684 17.6603C18.6685 17.91 18.5695 18.1496 18.3931 18.3263C18.2166 18.503 17.9772 18.6024 17.7275 18.6025C17.4778 18.6027 17.2382 18.5037 17.0615 18.3272C16.8901 18.1498 16.7953 17.9121 16.7974 17.6653C16.7996 17.4186 16.8985 17.1826 17.073 17.0081C17.2475 16.8336 17.4835 16.7347 17.7302 16.7325C17.977 16.7304 18.2147 16.8252 18.3921 16.9966V16.9948ZM21.0533 14.3336C21.1433 14.4203 21.2151 14.524 21.2646 14.6387C21.3141 14.7535 21.3402 14.8769 21.3415 15.0018C21.3427 15.1268 21.3191 15.2507 21.2719 15.3664C21.2248 15.4821 21.1551 15.5873 21.0668 15.6758C20.9786 15.7643 20.8736 15.8343 20.7581 15.8818C20.6425 15.9292 20.5186 15.9532 20.3937 15.9523C20.2687 15.9514 20.1452 15.9256 20.0303 15.8765C19.9155 15.8273 19.8115 15.7558 19.7246 15.6661C19.6371 15.5787 19.5677 15.4749 19.5203 15.3607C19.4729 15.2465 19.4485 15.1241 19.4484 15.0005C19.4482 14.7508 19.5472 14.5112 19.7237 14.3345C19.9001 14.1578 20.1395 14.0585 20.3892 14.0583C20.6389 14.0581 20.8785 14.1571 21.0552 14.3336H21.0533ZM13.0698 16.9948C13.1573 17.0821 13.2267 17.1859 13.2741 17.3001C13.3215 17.4143 13.3459 17.5367 13.346 17.6603C13.3461 17.784 13.3218 17.9064 13.2746 18.0207C13.2274 18.135 13.1581 18.2388 13.0707 18.3263C12.9833 18.4138 12.8796 18.4832 12.7654 18.5306C12.6512 18.578 12.5288 18.6025 12.4051 18.6025C12.2815 18.6026 12.159 18.5784 12.0448 18.5311C11.9305 18.4839 11.8267 18.4146 11.7392 18.3272C11.5678 18.1498 11.4729 17.9121 11.4751 17.6653C11.4772 17.4186 11.5762 17.1826 11.7506 17.0081C11.9251 16.8336 12.1611 16.7347 12.4079 16.7325C12.6546 16.7304 12.8923 16.8252 13.0698 16.9966V16.9948ZM15.7328 14.3336C15.8203 14.4211 15.8897 14.5249 15.9371 14.6393C15.9844 14.7536 16.0088 14.8761 16.0088 14.9998C16.0088 15.1236 15.9844 15.2461 15.9371 15.3604C15.8897 15.4747 15.8203 15.5786 15.7328 15.6661C15.6453 15.7535 15.5415 15.823 15.4272 15.8703C15.3128 15.9177 15.1903 15.942 15.0666 15.942C14.9429 15.942 14.8203 15.9177 14.706 15.8703C14.5917 15.823 14.4879 15.7535 14.4004 15.6661C14.3129 15.5787 14.2434 15.4749 14.196 15.3607C14.1486 15.2465 14.1242 15.1241 14.1241 15.0005C14.1239 14.7508 14.223 14.5112 14.3994 14.3345C14.5759 14.1578 14.8153 14.0585 15.065 14.0583C15.3147 14.0581 15.5543 14.1571 15.7309 14.3336H15.7328ZM18.3921 11.6724C18.482 11.7592 18.5537 11.863 18.603 11.9779C18.6523 12.0927 18.6783 12.2161 18.6794 12.3411C18.6805 12.466 18.6567 12.5899 18.6093 12.7056C18.562 12.8212 18.4921 12.9263 18.4038 13.0147C18.3154 13.103 18.2104 13.1729 18.0947 13.2202C17.9791 13.2675 17.8552 13.2913 17.7302 13.2902C17.6053 13.2892 17.4818 13.2632 17.367 13.2139C17.2522 13.1646 17.1483 13.0929 17.0615 13.003C16.8901 12.8255 16.7953 12.5878 16.7974 12.3411C16.7996 12.0944 16.8985 11.8583 17.073 11.6839C17.2475 11.5094 17.4835 11.4104 17.7302 11.4083C17.977 11.4061 18.2147 11.501 18.3921 11.6724Z" fill="#293056"/>
<path d="M26.5194 3.47963C25.4606 2.42115 24.0247 1.82653 22.5276 1.82653C21.0304 1.82653 19.5946 2.42115 18.5358 3.47963L16.379 5.63831L24.3983 13.6557L26.5194 11.4632C27.5778 10.4044 28.1724 8.96853 28.1724 7.4714C28.1724 5.97426 27.5778 4.53842 26.5194 3.47963ZM23.079 14.9995L15.0503 6.97078L6.97831 15.0578L14.9995 23.079L23.079 14.9995ZM13.6576 24.3983L5.64584 16.3865L3.47963 18.5377C2.47632 19.6071 1.92844 21.0249 1.9519 22.4911C1.97537 23.9573 2.56834 25.3568 3.60535 26.3936C4.64236 27.4304 6.04204 28.023 7.50824 28.0461C8.97443 28.0692 10.3921 27.521 11.4613 26.5175L11.4726 26.5062L13.6557 24.3964L13.6576 24.3983ZM4.98525 14.3897L17.2033 2.14904C18.6195 0.76242 20.5254 -0.00975427 22.5074 9.30409e-05C24.4894 0.00994036 26.3875 0.801014 27.7899 2.20163C29.1922 3.60226 29.9857 5.49941 29.998 7.48137C30.0103 9.46334 29.2405 11.3702 27.8556 12.7881L25.0758 15.6657L15.6544 25.0871L12.7881 27.8575C11.3702 29.2423 9.46334 30.0122 7.48138 29.9999C5.49941 29.9876 3.60226 29.1941 2.20163 27.7918C0.801014 26.3894 0.00994036 24.4913 9.30409e-05 22.5093C-0.00975427 20.5273 0.76242 18.6214 2.14904 17.2052L2.15092 17.2015L4.98336 14.3935L4.98525 14.3897Z" fill="#293056"/>
<path d="M3.47963 3.47869C2.42115 4.53749 1.82653 5.97333 1.82653 7.47046C1.82653 8.9676 2.42115 10.4034 3.47963 11.4622L5.63831 13.619L13.6557 5.59973L11.4632 3.47869C10.4044 2.42022 8.96853 1.8256 7.4714 1.8256C5.97426 1.8256 4.53842 2.42022 3.47963 3.47869ZM14.9995 6.91903L6.97078 14.9477L15.0578 23.0197L23.079 14.9986L14.9995 6.91903ZM24.3983 16.3404L16.3865 24.3522L18.5377 26.5184C19.6071 27.5217 21.0249 28.0696 22.4911 28.0461C23.9573 28.0227 25.3568 27.4297 26.3936 26.3927C27.4304 25.3557 28.023 23.956 28.0461 22.4898C28.0692 21.0236 27.521 19.6059 26.5175 18.5368L26.5062 18.5255L24.3964 16.3423L24.3983 16.3404ZM14.3897 25.0128L2.14904 12.7947C0.762419 11.3785 -0.00975517 9.4726 9.20571e-05 7.49062C0.00993928 5.50864 0.801013 3.61051 2.20163 2.20815C3.60225 0.805799 5.49941 0.0123785 7.48137 7.78743e-05C9.46334 -0.0122227 11.3702 0.757591 12.7881 2.14246L15.6657 4.9222L25.0871 14.3436L27.8575 17.2099C29.2423 18.6279 30.0122 20.5347 29.9999 22.5167C29.9876 24.4986 29.1941 26.3958 27.7918 27.7964C26.3894 29.197 24.4913 29.9881 22.5093 29.998C20.5273 30.0078 18.6214 29.2356 17.2052 27.849L17.2015 27.8471L14.3935 25.0147L14.3897 25.0128Z" fill="#293056"/>
<path d="M14.3316 19.5913C14.4183 19.5014 14.522 19.4295 14.6368 19.38C14.7515 19.3306 14.875 19.3044 14.9999 19.3032C15.1248 19.3019 15.2488 19.3256 15.3645 19.3727C15.4802 19.4199 15.5854 19.4896 15.6738 19.5778C15.7623 19.666 15.8323 19.771 15.8798 19.8866C15.9273 20.0022 15.9513 20.126 15.9504 20.251C15.9495 20.3759 15.9237 20.4994 15.8745 20.6143C15.8254 20.7292 15.7538 20.8331 15.6641 20.92C15.5767 21.0075 15.473 21.077 15.3588 21.1244C15.2446 21.1718 15.1222 21.1962 14.9985 21.1963C14.7488 21.1965 14.5093 21.0974 14.3326 20.921C14.1559 20.7445 14.0565 20.5051 14.0563 20.2554C14.0562 20.0057 14.1552 19.7662 14.3316 19.5895L14.3316 19.5913ZM11.6705 16.9283C11.7573 16.8384 11.8611 16.7667 11.9759 16.7174C12.0907 16.6681 12.2142 16.6421 12.3391 16.641C12.4641 16.6399 12.588 16.6638 12.7036 16.7111C12.8193 16.7584 12.9244 16.8283 13.0127 16.9166C13.1011 17.005 13.1709 17.11 13.2182 17.2257C13.2656 17.3413 13.2894 17.4652 13.2883 17.5902C13.2872 17.7151 13.2612 17.8386 13.2119 17.9534C13.1626 18.0682 13.0909 18.1721 13.001 18.2589C12.8236 18.4303 12.5859 18.5251 12.3391 18.523C12.0924 18.5208 11.8564 18.4219 11.6819 18.2474C11.5074 18.0729 11.4085 17.8369 11.4063 17.5902C11.4042 17.3435 11.499 17.1058 11.6705 16.9283ZM9.00927 14.2652C9.09676 14.1778 9.2006 14.1086 9.31487 14.0613C9.42914 14.0141 9.55159 13.9898 9.67523 13.9899C9.79887 13.99 9.92129 14.0144 10.0355 14.0618C10.1497 14.1092 10.2534 14.1787 10.3408 14.2662C10.4282 14.3536 10.4974 14.4575 10.5447 14.5718C10.5919 14.686 10.6162 14.8085 10.6161 14.9321C10.616 15.0558 10.5916 15.1782 10.5442 15.2924C10.4968 15.4066 10.4274 15.5103 10.3399 15.5977C10.1624 15.7691 9.92468 15.8639 9.67795 15.8618C9.43122 15.8597 9.1952 15.7607 9.02073 15.5862C8.84626 15.4118 8.7473 15.1757 8.74515 14.929C8.74301 14.6823 8.83786 14.4446 9.00927 14.2671L9.00927 14.2652ZM19.6559 14.2652C19.7434 14.1778 19.8472 14.1086 19.9615 14.0613C20.0757 14.0141 20.1982 13.9898 20.3218 13.9899C20.4455 13.99 20.5679 14.0144 20.6821 14.0618C20.7963 14.1092 20.9 14.1787 20.9874 14.2662C21.0748 14.3536 21.1441 14.4575 21.1913 14.5718C21.2385 14.686 21.2628 14.8085 21.2627 14.9321C21.2626 15.0558 21.2382 15.1782 21.1908 15.2924C21.1434 15.4066 21.074 15.5103 20.9865 15.5977C20.809 15.7691 20.5713 15.8639 20.3246 15.8618C20.0778 15.8597 19.8418 15.7607 19.6673 15.5862C19.4929 15.4118 19.3939 15.1757 19.3918 14.929C19.3896 14.6823 19.4845 14.4446 19.6559 14.2671L19.6559 14.2652ZM16.9928 11.6059C17.1693 11.4292 17.4087 11.3299 17.6584 11.3297C17.9081 11.3295 18.1476 11.4285 18.3243 11.605C18.501 11.7814 18.6004 12.0208 18.6006 12.2705C18.6008 12.5203 18.5017 12.7598 18.3253 12.9365C18.1478 13.1079 17.9101 13.2028 17.6634 13.2006C17.4166 13.1985 17.1806 13.0995 17.0062 12.925C16.8317 12.7506 16.7327 12.5146 16.7306 12.2678C16.7284 12.0211 16.8233 11.7834 16.9947 11.6059L16.9928 11.6059ZM14.3316 8.94474C14.4183 8.85474 14.522 8.78292 14.6368 8.73345C14.7515 8.68397 14.875 8.65784 14.9999 8.65659C15.1248 8.65533 15.2488 8.67896 15.3645 8.72611C15.4802 8.77326 15.5854 8.84299 15.6738 8.93121C15.7623 9.01944 15.8323 9.1244 15.8798 9.23998C15.9273 9.35555 15.9513 9.47942 15.9504 9.60437C15.9495 9.72931 15.9237 9.85282 15.8745 9.9677C15.8254 10.0826 15.7538 10.1865 15.6641 10.2734C15.5767 10.3609 15.473 10.4304 15.3588 10.4778C15.2446 10.5252 15.1222 10.5496 14.9985 10.5497C14.7488 10.5499 14.5093 10.4508 14.3326 10.2744C14.1559 10.0979 14.0565 9.85853 14.0563 9.60881C14.0562 9.3591 14.1552 9.11955 14.3316 8.94285L14.3316 8.94474ZM16.9928 16.9283C17.0802 16.8408 17.1839 16.7714 17.2981 16.724C17.4123 16.6766 17.5347 16.6521 17.6584 16.652C17.782 16.652 17.9045 16.6762 18.0187 16.7235C18.133 16.7707 18.2369 16.84 18.3243 16.9273C18.4118 17.0147 18.4813 17.1184 18.5287 17.2326C18.5761 17.3468 18.6005 17.4693 18.6006 17.5929C18.6007 17.7166 18.5764 17.839 18.5292 17.9533C18.4819 18.0675 18.4127 18.1714 18.3253 18.2589C18.1478 18.4303 17.9101 18.5251 17.6634 18.523C17.4166 18.5208 17.1806 18.4219 17.0062 18.2474C16.8317 18.0729 16.7327 17.8369 16.7306 17.5902C16.7284 17.3435 16.8233 17.1058 16.9947 16.9283L16.9928 16.9283ZM14.3316 14.2652C14.4191 14.1777 14.523 14.1083 14.6373 14.061C14.7516 14.0136 14.8741 13.9893 14.9979 13.9893C15.1216 13.9893 15.2441 14.0136 15.3584 14.061C15.4727 14.1083 15.5766 14.1777 15.6641 14.2652C15.7516 14.3527 15.821 14.4566 15.8683 14.5709C15.9157 14.6852 15.9401 14.8077 15.9401 14.9315C15.9401 15.0552 15.9157 15.1777 15.8683 15.292C15.821 15.4063 15.7516 15.5102 15.6641 15.5977C15.5767 15.6852 15.473 15.7546 15.3588 15.802C15.2446 15.8494 15.1222 15.8738 14.9985 15.8739C14.7488 15.8741 14.5093 15.7751 14.3326 15.5986C14.1559 15.4222 14.0565 15.1828 14.0563 14.9331C14.0562 14.6833 14.1552 14.4438 14.3316 14.2671L14.3316 14.2652ZM11.6705 11.6059C11.7573 11.516 11.8611 11.4444 11.9759 11.395C12.0907 11.3457 12.2142 11.3198 12.3391 11.3187C12.4641 11.3176 12.588 11.3414 12.7036 11.3887C12.8193 11.436 12.9244 11.5059 13.0127 11.5943C13.1011 11.6826 13.1709 11.7877 13.2182 11.9033C13.2656 12.019 13.2894 12.1429 13.2883 12.2678C13.2872 12.3928 13.2612 12.5163 13.2119 12.6311C13.1626 12.7459 13.0909 12.8497 13.001 12.9365C12.8236 13.1079 12.5859 13.2028 12.3391 13.2006C12.0924 13.1985 11.8564 13.0995 11.6819 12.925C11.5074 12.7506 11.4085 12.5146 11.4063 12.2678C11.4042 12.0211 11.499 11.7834 11.6705 11.6059Z" fill="#293056"/>
</svg>
